<svg width="1600" height="900" viewBox="0 0 1600 900" fill="none" xmlns="http://www.w3.org/2000/svg">
  <defs>
    <linearGradient id="bg" x1="120" y1="60" x2="1480" y2="860" gradientUnits="userSpaceOnUse">
      <stop stop-color="#0E1726"/>
      <stop offset="0.52" stop-color="#101C2B"/>
      <stop offset="1" stop-color="#09111B"/>
    </linearGradient>
    <linearGradient id="panel" x1="200" y1="140" x2="1410" y2="780" gradientUnits="userSpaceOnUse">
      <stop stop-color="#142235"/>
      <stop offset="1" stop-color="#0C1521"/>
    </linearGradient>
    <linearGradient id="accent" x1="250" y1="220" x2="1060" y2="720" gradientUnits="userSpaceOnUse">
      <stop stop-color="#E11D48" stop-opacity="0.24"/>
      <stop offset="0.45" stop-color="#0EA5E9" stop-opacity="0.08"/>
      <stop offset="1" stop-color="#22C55E" stop-opacity="0.14"/>
    </linearGradient>
    <linearGradient id="cardGlow" x1="980" y1="220" x2="1370" y2="710" gradientUnits="userSpaceOnUse">
      <stop stop-color="#17283E"/>
      <stop offset="1" stop-color="#0B1520"/>
    </linearGradient>
    <filter id="softShadow" x="0" y="0" width="1600" height="900" filterUnits="userSpaceOnUse" color-interpolation-filters="sRGB">
      <feDropShadow dx="0" dy="18" stdDeviation="30" flood-color="#02060C" flood-opacity="0.42"/>
    </filter>
  </defs>

  <rect width="1600" height="900" rx="40" fill="url(#bg)"/>
  <circle cx="1320" cy="120" r="280" fill="#0EA5E9" fill-opacity="0.06"/>
  <circle cx="260" cy="820" r="260" fill="#E11D48" fill-opacity="0.08"/>
  <circle cx="1510" cy="720" r="220" fill="#22C55E" fill-opacity="0.05"/>

  <g filter="url(#softShadow)">
    <rect x="76" y="76" width="1448" height="748" rx="34" fill="url(#panel)" stroke="#213249" stroke-width="2"/>
    <rect x="76" y="76" width="1448" height="748" rx="34" fill="url(#accent)"/>
  </g>

  <g opacity="0.7">
    <rect x="120" y="120" width="152" height="24" rx="12" fill="#17283D"/>
    <text x="145" y="136" fill="#B8C8DA" font-size="12" font-family="Inter, Arial, sans-serif" letter-spacing="0.18em">OPEN SOURCE</text>

    <rect x="286" y="120" width="248" height="24" rx="12" fill="#17283D"/>
    <text x="311" y="136" fill="#8FB3D9" font-size="12" font-family="Inter, Arial, sans-serif" letter-spacing="0.18em">F1 ANALYTICS PLATFORM</text>
  </g>

  <text x="120" y="232" fill="#F4F7FB" font-size="84" font-weight="700" font-family="Inter, Arial, sans-serif">Slipstream</text>
  <text x="120" y="284" fill="#9CB2C9" font-size="26" font-family="Inter, Arial, sans-serif">
    Qualifying telemetry, race analysis, session intelligence,
  </text>
  <text x="120" y="322" fill="#9CB2C9" font-size="26" font-family="Inter, Arial, sans-serif">
    and ML-based predictions built from public Formula 1 data.
  </text>

  <g>
    <rect x="120" y="384" width="208" height="68" rx="18" fill="#111C2A" stroke="#24374E"/>
    <text x="144" y="409" fill="#7488A0" font-size="12" font-family="Inter, Arial, sans-serif" letter-spacing="0.16em">TELEMETRY</text>
    <text x="144" y="440" fill="#F4F7FB" font-size="28" font-weight="700" font-family="Inter, Arial, sans-serif">Q1 / Q2 / Q3</text>

    <rect x="348" y="384" width="202" height="68" rx="18" fill="#111C2A" stroke="#24374E"/>
    <text x="372" y="409" fill="#7488A0" font-size="12" font-family="Inter, Arial, sans-serif" letter-spacing="0.16em">ANALYSIS</text>
    <text x="372" y="440" fill="#F4F7FB" font-size="28" font-weight="700" font-family="Inter, Arial, sans-serif">RACE + FP</text>

    <rect x="570" y="384" width="238" height="68" rx="18" fill="#111C2A" stroke="#24374E"/>
    <text x="594" y="409" fill="#7488A0" font-size="12" font-family="Inter, Arial, sans-serif" letter-spacing="0.16em">MODELS</text>
    <text x="594" y="440" fill="#F4F7FB" font-size="28" font-weight="700" font-family="Inter, Arial, sans-serif">PREDICTIONS</text>
  </g>

  <g>
    <text x="122" y="538" fill="#6E8297" font-size="12" font-family="JetBrains Mono, monospace" letter-spacing="0.2em">STACK</text>
    <text x="120" y="578" fill="#D6E0EC" font-size="28" font-family="Inter, Arial, sans-serif">Next.js • Flask • PostgreSQL/TimescaleDB • FastF1 • Python ML</text>
    <text x="120" y="644" fill="#6E8297" font-size="12" font-family="JetBrains Mono, monospace" letter-spacing="0.2em">LIVE PRODUCT FOCUS</text>
    <text x="120" y="684" fill="#D6E0EC" font-size="27" font-family="Inter, Arial, sans-serif">
      <tspan x="120" dy="0">Telemetry overlays, sector deltas, race pace,</tspan>
      <tspan x="120" dy="36">and deployable weekend predictions</tspan>
    </text>
  </g>

  <g>
    <rect x="960" y="168" width="470" height="566" rx="28" fill="url(#cardGlow)" stroke="#25384E" stroke-width="2"/>
    <text x="998" y="214" fill="#8094AB" font-size="11" font-family="JetBrains Mono, monospace" letter-spacing="0.18em">QUALIFYING TELEMETRY</text>
    <text x="998" y="252" fill="#F4F7FB" font-size="36" font-weight="700" font-family="Inter, Arial, sans-serif">Mercedes vs Ferrari</text>
    <text x="998" y="282" fill="#8BA3BC" font-size="18" font-family="Inter, Arial, sans-serif">Distance-aligned traces and sector deltas</text>

    <rect x="998" y="318" width="394" height="112" rx="18" fill="#0E1824" stroke="#1E3146"/>
    <path d="M1022 388C1050 364 1086 344 1120 348C1160 352 1177 392 1204 392C1230 392 1246 338 1276 338C1304 338 1320 378 1358 380C1376 381 1398 372 1410 362" stroke="#6EE7D2" stroke-width="5" stroke-linecap="round"/>
    <path d="M1022 372C1046 350 1072 346 1105 362C1132 375 1150 408 1172 408C1196 408 1222 322 1250 322C1280 322 1316 386 1342 386C1365 386 1386 370 1410 346" stroke="#F43F5E" stroke-width="5" stroke-linecap="round"/>
    <path d="M1022 358C1048 342 1076 336 1104 338C1132 340 1161 370 1186 370C1208 370 1232 340 1262 340C1298 340 1324 366 1356 366C1376 366 1393 360 1410 354" stroke="#F59E0B" stroke-width="5" stroke-linecap="round"/>
    <text x="1024" y="411" fill="#4E677F" font-size="10" font-family="JetBrains Mono, monospace">speed traces</text>

    <rect x="998" y="454" width="394" height="100" rx="18" fill="#0E1824" stroke="#1E3146"/>
    <line x1="1026" y1="482" x2="1360" y2="482" stroke="#22364B"/>
    <line x1="1026" y1="512" x2="1360" y2="512" stroke="#22364B"/>
    <line x1="1026" y1="542" x2="1360" y2="542" stroke="#22364B"/>
    <text x="1030" y="476" fill="#6EE7D2" font-size="12" font-family="Inter, Arial, sans-serif" font-weight="700">ANT</text>
    <rect x="1080" y="466" width="248" height="10" rx="5" fill="#6EE7D2" fill-opacity="0.9"/>
    <text x="1342" y="476" fill="#C9D7E5" font-size="12" font-family="JetBrains Mono, monospace">1:28.778</text>
    <text x="1030" y="506" fill="#F43F5E" font-size="12" font-family="Inter, Arial, sans-serif" font-weight="700">LEC</text>
    <rect x="1080" y="496" width="212" height="10" rx="5" fill="#F43F5E" fill-opacity="0.9"/>
    <text x="1342" y="506" fill="#C9D7E5" font-size="12" font-family="JetBrains Mono, monospace">+0.627</text>
    <text x="1030" y="536" fill="#F59E0B" font-size="12" font-family="Inter, Arial, sans-serif" font-weight="700">RUS</text>
    <rect x="1080" y="526" width="228" height="10" rx="5" fill="#F59E0B" fill-opacity="0.9"/>
    <text x="1342" y="536" fill="#C9D7E5" font-size="12" font-family="JetBrains Mono, monospace">+0.298</text>

    <rect x="998" y="580" width="184" height="118" rx="18" fill="#0E1824" stroke="#1E3146"/>
    <text x="1022" y="608" fill="#6E8297" font-size="11" font-family="JetBrains Mono, monospace" letter-spacing="0.14em">MODEL</text>
    <text x="1022" y="652" fill="#F4F7FB" font-size="32" font-weight="700" font-family="Inter, Arial, sans-serif">extra_tree</text>
    <text x="1022" y="680" fill="#8DA5BE" font-size="16" font-family="Inter, Arial, sans-serif">Deployed race forecast</text>

    <rect x="1208" y="580" width="184" height="118" rx="18" fill="#0E1824" stroke="#1E3146"/>
    <text x="1232" y="608" fill="#6E8297" font-size="11" font-family="JetBrains Mono, monospace" letter-spacing="0.14em">USE CASE</text>
    <text x="1232" y="652" fill="#F4F7FB" font-size="32" font-weight="700" font-family="Inter, Arial, sans-serif">Live Ops</text>
    <text x="1232" y="680" fill="#8DA5BE" font-size="16" font-family="Inter, Arial, sans-serif">Race-weekend analysis</text>
  </g>

  <g opacity="0.88">
    <circle cx="120" cy="780" r="6" fill="#E11D48"/>
    <text x="138" y="785" fill="#8CA2B8" font-size="16" font-family="Inter, Arial, sans-serif">Full-stack product with strong data engineering foundations</text>
  </g>
</svg>
